<svg width="24" height="24" viewBox="0 0 24 24" fill="none" xmlns="http://www.w3.org/2000/svg">
<g filter="url(#filter0_d_2116_371)">
<rect x="4.5" y="0.5" width="15" height="15" stroke="black" shape-rendering="crispEdges"/>
<path d="M19 5.875C19 10.25 12.5131 13.7913 12.2369 13.9375C12.1641 13.9767 12.0827 13.9972 12 13.9972C11.9173 13.9972 11.8359 13.9767 11.7631 13.9375C11.4869 13.7913 5 10.25 5 5.875C5.00116 4.84764 5.40979 3.86269 6.13624 3.13624C6.86269 2.40979 7.84764 2.00116 8.875 2C10.1656 2 11.2956 2.555 12 3.49312C12.7044 2.555 13.8344 2 15.125 2C16.1524 2.00116 17.1373 2.40979 17.8638 3.13624C18.5902 3.86269 18.9988 4.84764 19 5.875Z" fill="#F0E8C2"/>
</g>
<defs>
<filter id="filter0_d_2116_371" x="0" y="0" width="24" height="24" filterUnits="userSpaceOnUse" color-interpolation-filters="sRGB">
<feFlood flood-opacity="0" result="BackgroundImageFix"/>
<feColorMatrix in="SourceAlpha" type="matrix" values="0 0 0 0 0 0 0 0 0 0 0 0 0 0 0 0 0 0 127 0" result="hardAlpha"/>
<feOffset dy="4"/>
<feGaussianBlur stdDeviation="2"/>
<feComposite in2="hardAlpha" operator="out"/>
<feColorMatrix type="matrix" values="0 0 0 0 0 0 0 0 0 0 0 0 0 0 0 0 0 0 0.25 0"/>
<feBlend mode="normal" in2="BackgroundImageFix" result="effect1_dropShadow_2116_371"/>
<feBlend mode="normal" in="SourceGraphic" in2="effect1_dropShadow_2116_371" result="shape"/>
</filter>
</defs>
</svg>
